<svg width="674" height="407" viewBox="0 0 674 407" fill="none" xmlns="http://www.w3.org/2000/svg">
<g id="jobs" clip-path="url(#clip0)">
<g id="plant">
<path id="Vector" d="M573.836 272.554C576.075 272.66 578.308 272.245 580.359 271.34C582.41 270.436 584.223 269.068 585.655 267.343C587.087 265.618 588.099 263.584 588.611 261.401C589.123 259.219 589.122 256.947 588.606 254.765C588.091 252.583 587.076 250.55 585.641 248.828C584.207 247.105 582.392 245.739 580.34 244.838C578.287 243.936 576.054 243.524 573.815 243.633C571.576 243.743 569.393 244.371 567.439 245.468L569.995 252.476L564.735 247.424C561.914 250.004 560.233 253.598 560.06 257.417C559.993 258.756 560.117 260.098 560.427 261.403C561.146 264.468 562.844 267.214 565.264 269.226C567.683 271.238 570.693 272.407 573.836 272.554V272.554Z" fill="#57B894"/>
<path id="Vector_2" d="M616.13 349.906C613.062 344.224 616.543 337.259 620.545 332.191C624.547 327.123 629.424 321.85 629.32 315.392C629.171 306.112 619.324 300.632 611.456 295.713C605.618 292.061 600.233 287.731 595.415 282.811C593.483 280.839 591.616 278.729 590.486 276.21C588.859 272.582 588.904 268.454 589.007 264.479C589.348 251.236 590.002 238.006 590.969 224.789" stroke="#3F3D56" stroke-miterlimit="10"/>
<path id="Vector_3" d="M573.836 270.545C576.075 270.651 578.308 270.236 580.359 269.332C582.41 268.427 584.223 267.059 585.655 265.334C587.087 263.609 588.099 261.575 588.611 259.392C589.123 257.21 589.122 254.938 588.606 252.756C588.091 250.574 587.076 248.541 585.641 246.819C584.207 245.096 582.392 243.73 580.34 242.829C578.287 241.927 576.054 241.515 573.815 241.625C571.576 241.734 569.393 242.362 567.439 243.459L569.995 250.467L564.735 245.415C561.914 247.995 560.233 251.589 560.06 255.408C559.993 256.747 560.117 258.09 560.427 259.394C561.146 262.459 562.844 265.205 565.264 267.217C567.683 269.229 570.693 270.398 573.836 270.545V270.545Z" stroke="#3F3D56" stroke-miterlimit="10"/>
<path id="Vector_4" d="M576.012 226.744C576.125 224.32 576.845 221.963 578.108 219.89C579.37 217.818 581.134 216.097 583.236 214.885L586.476 221.296L586.378 213.535C589.321 212.668 592.463 212.759 595.351 213.795C598.239 214.83 600.723 216.757 602.445 219.297C604.166 221.837 605.037 224.858 604.93 227.925C604.823 230.992 603.745 233.945 601.85 236.359C599.956 238.773 597.344 240.522 594.391 241.354C591.438 242.186 588.297 242.058 585.422 240.988C582.546 239.918 580.085 237.961 578.394 235.401C576.703 232.841 575.869 229.809 576.012 226.744V226.744Z" fill="#57B894"/>
<path id="Vector_5" d="M576.012 224.066C576.125 221.641 576.845 219.284 578.108 217.212C579.37 215.139 581.134 213.418 583.236 212.206L586.476 218.617L586.378 210.857C589.321 209.99 592.463 210.08 595.351 211.116C598.239 212.152 600.723 214.078 602.445 216.618C604.166 219.158 605.037 222.179 604.93 225.246C604.823 228.313 603.745 231.267 601.85 233.68C599.956 236.094 597.344 237.843 594.391 238.675C591.438 239.507 588.297 239.379 585.422 238.309C582.546 237.239 580.085 235.283 578.394 232.723C576.703 230.162 575.869 227.131 576.012 224.066V224.066Z" stroke="#3F3D56" stroke-miterlimit="10"/>
<path id="Vector_6" d="M609.072 296.604C612.622 296.77 616.109 295.623 618.868 293.383C621.627 291.142 623.465 287.964 624.033 284.455C624.6 280.946 623.857 277.351 621.944 274.354C620.032 271.358 617.084 269.171 613.663 268.209L613.738 274.173L610.462 267.686C610.449 267.684 610.436 267.683 610.423 267.683C608.524 267.594 606.627 267.881 604.839 268.525C603.051 269.17 601.408 270.161 600.003 271.441C598.598 272.721 597.458 274.265 596.65 275.986C595.842 277.706 595.38 279.569 595.291 281.468C595.203 283.367 595.489 285.265 596.133 287.053C596.778 288.842 597.768 290.485 599.048 291.891C600.328 293.296 601.871 294.436 603.591 295.245C605.311 296.053 607.174 296.515 609.072 296.604V296.604Z" fill="#57B894"/>
<path id="Vector_7" d="M608.961 293.925C612.511 294.091 615.998 292.944 618.757 290.704C621.516 288.463 623.354 285.286 623.922 281.777C624.489 278.267 623.746 274.672 621.833 271.676C619.921 268.68 616.973 266.492 613.552 265.53L613.627 271.494L610.351 265.007C610.338 265.005 610.325 265.004 610.312 265.005C608.413 264.916 606.516 265.202 604.728 265.847C602.94 266.492 601.297 267.482 599.892 268.762C598.487 270.042 597.347 271.587 596.539 273.307C595.73 275.028 595.269 276.89 595.18 278.789C595.091 280.688 595.378 282.586 596.022 284.375C596.667 286.163 597.657 287.807 598.937 289.212C600.216 290.618 601.76 291.757 603.48 292.566C605.2 293.375 607.063 293.837 608.961 293.925V293.925Z" stroke="#3F3D56" stroke-miterlimit="10"/>
<path id="Vector_8" d="M601.817 324.035C603.336 326.987 605.823 329.326 608.861 330.661C611.899 331.997 615.304 332.246 618.504 331.368C621.705 330.49 624.506 328.538 626.439 325.84C628.371 323.141 629.317 319.86 629.118 316.546C628.919 313.233 627.587 310.088 625.345 307.64C623.104 305.193 620.089 303.59 616.806 303.102C613.524 302.614 610.173 303.27 607.317 304.959C604.46 306.649 602.271 309.269 601.117 312.382L610.155 319.738L600.212 317.433C600.211 319.73 600.761 321.995 601.817 324.035V324.035Z" fill="#57B894"/>
<path id="Vector_9" d="M601.817 322.026C603.336 324.978 605.823 327.317 608.861 328.652C611.899 329.988 615.304 330.237 618.504 329.359C621.705 328.481 624.506 326.529 626.439 323.831C628.371 321.132 629.317 317.851 629.118 314.537C628.919 311.224 627.587 308.079 625.345 305.632C623.104 303.184 620.089 301.581 616.806 301.093C613.524 300.605 610.173 301.261 607.317 302.95C604.46 304.64 602.271 307.26 601.117 310.373L610.155 317.729L600.212 315.424C600.211 317.722 600.761 319.986 601.817 322.026V322.026Z" stroke="#3F3D56" stroke-miterlimit="10"/>
</g>
<path id="Vector_10" d="M491.425 102.263C493.169 109.134 491.841 116.523 488.888 122.967C485.936 129.411 481.451 135.028 476.704 140.292C474.316 142.94 471.732 145.755 471.225 149.286C470.55 153.993 473.723 158.253 475.854 162.504C477.717 166.226 478.848 170.273 479.184 174.423C479.47 177.986 479.024 181.914 476.529 184.473C474.123 186.941 470.428 187.538 466.997 187.857C457.548 188.734 448.028 188.504 438.631 187.171C441.264 183.668 440.275 181.495 440.028 177.12C439.542 168.536 433.297 160.764 432.084 152.253C431.12 145.486 435.598 139.273 439.831 133.907L459.24 109.302C462.456 105.225 465.659 101.026 467.969 96.3513C469.619 93.011 469.928 86.7395 474.08 85.6258C481.903 83.5271 489.903 96.2706 491.425 102.263Z" fill="#47465A"/>
<path id="Vector_11" d="M396.179 122.544C396.179 122.544 382.79 162.053 376.095 164.731C369.401 167.41 416.262 215.624 416.262 215.624L450.404 198.883L451.743 166.74L438.354 166.071C438.354 166.071 436.346 152.678 443.04 145.981C449.735 139.285 396.179 122.544 396.179 122.544Z" fill="#FBBEBE"/>
<path id="Vector_12" opacity="0.1" d="M396.179 122.544C396.179 122.544 382.79 162.053 376.095 164.731C369.401 167.41 416.262 215.624 416.262 215.624L450.404 198.883L451.743 166.74L438.354 166.071C438.354 166.071 436.346 152.678 443.04 145.981C449.735 139.285 396.179 122.544 396.179 122.544Z" fill="black"/>
<path id="Vector_13" d="M411.576 189.508C411.576 189.508 382.79 170.088 381.451 154.017C381.451 154.017 360.029 168.079 353.334 167.41C346.64 166.74 328.564 170.758 328.564 173.437C328.564 176.115 345.301 251.784 345.301 251.784C345.301 251.784 333.251 283.927 339.276 293.972C345.301 304.016 348.648 350.891 348.648 350.891H487.893C487.893 350.891 469.149 318.079 479.19 294.641C489.232 271.204 493.249 172.767 493.249 172.767C493.249 172.767 485.885 167.41 478.521 168.749C471.157 170.088 462.454 164.731 457.099 164.062C451.743 163.392 439.606 166.133 439.606 166.133L411.576 189.508Z" fill="#F1972C"/>
<path id="Vector_14" d="M674 350.173V379.637C674 384.822 671.957 389.799 668.315 393.488C664.672 397.177 659.723 399.281 654.539 399.345L34.7523 406.999C33.2545 407.018 31.7679 406.739 30.3788 406.178C28.9897 405.617 27.7257 404.787 26.66 403.734C25.5943 402.681 24.7482 401.427 24.1707 400.044C23.5932 398.662 23.2958 397.178 23.2958 395.68V363.11C23.2958 360.194 24.4307 357.392 26.4599 355.299C28.4891 353.206 31.2534 351.985 34.1671 351.895L655.982 332.697C658.321 332.625 660.652 333.024 662.834 333.869C665.017 334.715 667.008 335.991 668.688 337.621C670.369 339.251 671.705 341.202 672.617 343.358C673.53 345.514 674 347.832 674 350.173V350.173Z" fill="#41414C"/>
<path id="Vector_15" opacity="0.1" d="M674 371.65V379.637C674 384.822 671.957 389.799 668.315 393.488C664.672 397.177 659.723 399.281 654.539 399.345L34.7523 406.999C33.2545 407.018 31.7679 406.739 30.3788 406.178C28.9897 405.617 27.7257 404.787 26.66 403.734C25.5943 402.681 24.7482 401.427 24.1707 400.044C23.5932 398.662 23.2958 397.178 23.2958 395.68V394.632L674 371.65Z" fill="black"/>
<path id="Vector_16" d="M552.161 350.891L473.741 340.713L334.297 345.802L384.798 361.605L552.161 350.891Z" fill="#F2F2F2"/>
<path id="Vector_17" d="M343.962 346.203V354.239L267.645 371.65L260.187 369.929L258.942 369.641L204.047 340.177L343.962 346.203Z" fill="#9493B6"/>
<path id="Vector_18" opacity="0.1" d="M343.962 346.203V354.239L267.645 371.65L260.187 369.929L258.942 361.605L343.962 346.203Z" fill="black"/>
<path id="Vector_19" d="M256.264 358.927C257.603 358.257 285.72 352.9 285.72 352.9L234.842 348.212L256.264 358.927Z" fill="#47465A"/>
<path id="Vector_20" d="M432.329 156.696C456.361 156.696 475.843 137.208 475.843 113.169C475.843 89.1301 456.361 69.6426 432.329 69.6426C408.297 69.6426 388.815 89.1301 388.815 113.169C388.815 137.208 408.297 156.696 432.329 156.696Z" fill="#FBBEBE"/>
<path id="Vector_21" d="M305.803 310.043C305.803 310.043 266.975 326.784 257.603 322.096C248.231 317.409 220.114 305.355 211.411 330.132C204.393 350.113 245.363 351.368 261.486 351.105C263.436 351.073 265.355 350.618 267.112 349.772C268.869 348.926 270.421 347.708 271.661 346.203V346.203L327.56 327.119C327.56 327.119 315.176 306.025 305.803 310.043Z" fill="#FBBEBE"/>
<path id="Vector_22" d="M415.593 279.24L420.279 283.257L376.765 344.864C376.765 344.864 370.07 345.534 372.079 342.186L415.593 279.24Z" fill="#47465A"/>
<path id="Vector_23" d="M418.271 283.257L422.957 277.231L420.949 275.891L416.263 281.248L418.271 283.257Z" fill="#47465A"/>
<path id="Vector_24" d="M338.941 169.084C338.941 169.084 316.18 173.102 316.849 190.512C317.519 207.923 311.828 227.677 306.473 237.052C301.117 246.427 305.134 253.793 306.473 266.516C307.812 279.24 299.778 292.632 303.795 299.329C307.812 306.025 260.281 310.713 260.281 317.409C260.281 324.105 290.406 336.829 285.05 345.534C281.197 351.797 308.356 341.25 323.899 334.838C327.946 333.206 331.54 330.621 334.375 327.302C337.211 323.984 339.204 320.03 340.186 315.777C340.656 313.642 340.782 311.717 340.28 310.378C338.271 305.021 362.037 297.989 362.706 284.597C363.376 271.204 359.359 257.811 356.012 244.418C352.665 231.026 338.941 169.084 338.941 169.084Z" fill="#F1972C"/>
<path id="Vector_25" d="M7.2144 239.169L203.523 241.027C204.88 241.04 206.205 241.44 207.344 242.179C208.482 242.919 209.386 243.967 209.949 245.202L262.854 361.15C263.359 362.257 263.573 363.474 263.475 364.687C263.378 365.9 262.972 367.067 262.297 368.079C261.622 369.091 260.699 369.913 259.617 370.468C258.535 371.024 257.329 371.293 256.114 371.251L59.1159 364.434C57.8041 364.389 56.5303 363.983 55.4344 363.26C54.3385 362.538 53.463 361.527 52.9041 360.339L0.688259 249.349C0.173875 248.255 -0.0546782 247.049 0.0240102 245.843C0.102699 244.638 0.486053 243.472 1.13817 242.454C1.79028 241.437 2.68982 240.602 3.75255 240.027C4.81527 239.453 6.00641 239.157 7.2144 239.169Z" fill="#7A799C"/>
<path id="Vector_26" d="M470.488 310.043C470.488 310.043 431.66 326.784 422.287 322.096C412.915 317.409 384.798 305.356 376.095 330.132C369.077 350.113 410.047 351.368 426.171 351.105C428.12 351.073 430.04 350.618 431.796 349.772C433.553 348.926 435.105 347.708 436.346 346.203V346.203L493.249 340.177C493.249 340.177 479.86 306.025 470.488 310.043Z" fill="#FBBEBE"/>
<path id="Vector_27" opacity="0.1" d="M493.584 183.146C493.584 183.146 503.291 170.088 507.977 182.142C512.663 194.195 511.993 241.07 511.993 241.07C511.993 241.07 520.027 264.508 517.349 279.909C514.671 295.311 520.027 297.32 520.027 297.32C520.027 297.32 521.366 304.016 517.349 307.364C513.332 310.713 510.655 325.445 511.993 327.454C513.332 329.462 509.985 342.186 507.307 342.186C504.63 342.186 498.939 341.181 498.939 341.181C498.939 341.181 485.216 316.07 456.429 314.061C456.429 314.061 461.115 307.364 458.438 293.972C455.76 280.579 493.584 183.146 493.584 183.146Z" fill="black"/>
<path id="Vector_28" d="M491.91 173.437C491.91 173.437 502.956 169.084 507.642 181.137C512.328 193.191 516.68 241.07 516.68 241.07C516.68 241.07 524.713 264.508 522.035 279.909C519.357 295.311 524.713 297.32 524.713 297.32C524.713 297.32 526.052 304.016 522.035 307.364C518.018 310.713 515.341 325.445 516.68 327.454C518.018 329.463 514.671 342.186 511.993 342.186C509.316 342.186 484.546 346.203 484.546 346.203C484.546 346.203 489.902 316.07 461.115 314.061C461.115 314.061 465.801 307.364 463.124 293.972C460.446 280.579 491.91 173.437 491.91 173.437Z" fill="#F1972C"/>
<path id="Vector_29" d="M446.906 51.7445C440.23 47.5678 432.676 44.9995 424.839 44.242C417.001 43.4846 409.095 44.5587 401.744 47.3797C393.862 50.4805 386.901 55.5292 380.39 60.9468C375.167 65.2927 370.074 70.0338 366.865 76.0238C362 85.1057 362.014 95.9166 362.146 106.219C362.261 115.189 362.377 124.187 363.6 133.074C365.276 145.263 369.031 157.331 368.169 169.604C367.306 181.878 360.095 194.973 348.041 197.421C359.254 198.27 370.526 197.945 381.673 196.452C388.698 195.51 396.072 193.901 401.209 189.015C404.96 185.447 407.08 180.527 408.925 175.689C410.779 170.827 412.476 165.774 412.411 160.57C412.275 149.742 404.759 140.66 399.853 131.007C398.476 128.297 397.268 125.384 397.315 122.345C397.363 119.306 398.949 116.116 401.773 114.994C405.258 113.609 409.292 115.675 412.914 114.707C418.734 113.152 420.245 105.067 425.588 102.285C429.542 100.226 434.588 101.77 437.912 104.74C439.399 106.068 440.672 107.673 442.397 108.674C444.734 110.03 447.574 110.096 450.277 110.126C455.322 110.181 472.542 102.271 476.178 98.7719C479.725 117.021 506.101 101.139 490.964 74.2142C485.694 64.8395 478.703 56.1324 469.404 50.733C460.104 45.3335 448.239 43.6589 438.477 48.1668" fill="#47465A"/>
<path id="Vector_30" d="M401.869 134.263C405.197 134.263 407.894 129.466 407.894 123.549C407.894 117.631 405.197 112.834 401.869 112.834C398.542 112.834 395.844 117.631 395.844 123.549C395.844 129.466 398.542 134.263 401.869 134.263Z" fill="#FBBEBE"/>
<path id="Vector_31" d="M461.115 165.078C461.115 165.078 498.27 170.423 500.278 173.102C502.286 175.78 498.27 191.852 498.27 191.852L471.492 196.539L450.886 192.094L461.115 165.078Z" fill="#F1972C"/>
<path id="Vector_32" opacity="0.1" d="M347.229 191.3C341.634 190.335 336.176 195.401 333.279 202.08C330.382 208.759 329.595 216.762 329.31 224.537C329.027 232.265 329.194 240.157 330.953 247.503C334.566 262.59 344.264 273.256 349.876 287.128C354.187 298.134 355.93 309.979 354.973 321.762" fill="black"/>
<path id="Vector_33" d="M351.246 191.3C345.65 190.335 340.193 195.401 337.296 202.08C334.398 208.759 333.611 216.762 333.327 224.537C333.043 232.265 333.211 240.157 334.97 247.503C338.582 262.59 348.28 273.256 353.893 287.128C358.204 298.134 359.947 309.979 358.99 321.762" fill="#F1972C"/>
<path id="Vector_34" d="M566.42 340.926L631.181 366.838L671.657 359.55L668.127 330.569L667.609 326.351L599.61 305.297L594.753 310.155L566.42 340.926Z" fill="#F1972C"/>
<path id="Vector_35" opacity="0.1" d="M603.658 310.455V338.496L671.657 359.55L668.127 330.569L603.658 310.455Z" fill="black"/>
<path id="Vector_36" d="M541.061 346.981L545.645 348.679L600.302 368.927L604.55 370.5C604.683 370.55 604.827 370.568 604.969 370.551C605.111 370.535 605.246 370.484 605.365 370.404L610.37 367.047L662.438 332.105L667.357 328.805C667.499 328.71 667.611 328.576 667.681 328.42C667.75 328.263 667.773 328.09 667.748 327.921C667.723 327.752 667.65 327.593 667.539 327.464C667.427 327.334 667.281 327.239 667.118 327.189L659.274 324.786L604.137 307.89L599.324 306.413C599.195 306.373 599.058 306.363 598.925 306.383C598.791 306.403 598.663 306.453 598.552 306.528L594.759 309.085L545.635 342.176L540.874 345.384C540.736 345.477 540.626 345.606 540.557 345.757C540.487 345.908 540.461 346.075 540.48 346.24C540.499 346.405 540.564 346.562 540.666 346.692C540.769 346.823 540.905 346.923 541.061 346.981V346.981Z" fill="#7A799C"/>
<path id="Vector_37" d="M653.835 331.819L605.047 365.009C604.811 365.17 604.541 365.272 604.258 365.307C603.975 365.342 603.688 365.309 603.421 365.212L551.625 346.297C551.31 346.181 551.034 345.98 550.826 345.716C550.619 345.451 550.489 345.135 550.451 344.801C550.413 344.468 550.468 344.13 550.611 343.826C550.754 343.522 550.978 343.263 551.259 343.08L598.482 312.254C598.703 312.11 598.953 312.016 599.215 311.979C599.476 311.943 599.743 311.964 599.995 312.043L653.356 328.592C653.681 328.694 653.971 328.885 654.192 329.144C654.413 329.402 654.557 329.718 654.607 330.055C654.657 330.392 654.611 330.736 654.474 331.048C654.338 331.36 654.116 331.627 653.835 331.819Z" fill="#F2F2F2"/>
<path id="Vector_38" d="M659.274 324.786V332.105H662.438L667.357 328.805C667.499 328.71 667.611 328.576 667.681 328.42C667.75 328.263 667.773 328.09 667.748 327.921C667.723 327.752 667.65 327.593 667.539 327.464C667.427 327.334 667.281 327.239 667.118 327.189L659.274 324.786Z" fill="#F1972C"/>
<path id="Vector_39" d="M600.302 366.635V368.927L604.55 370.5C604.683 370.55 604.827 370.568 604.969 370.551C605.111 370.535 605.246 370.484 605.365 370.404L610.37 367.047V366.635H600.302Z" fill="#F1972C"/>
<path id="Vector_40" d="M541.061 346.981L545.645 348.679V342.176H545.635L540.874 345.384C540.736 345.477 540.626 345.606 540.557 345.757C540.487 345.908 540.461 346.075 540.48 346.24C540.499 346.405 540.564 346.562 540.666 346.692C540.769 346.823 540.905 346.923 541.061 346.981V346.981Z" fill="#F1972C"/>
<path id="Vector_41" d="M594.759 309.085H604.137V307.89L599.324 306.413C599.195 306.373 599.058 306.363 598.924 306.383C598.791 306.403 598.663 306.453 598.552 306.528L594.759 309.085Z" fill="#F1972C"/>
<path id="Vector_42" d="M574.252 325.445C574.622 325.445 574.922 325.145 574.922 324.775C574.922 324.405 574.622 324.105 574.252 324.105C573.882 324.105 573.583 324.405 573.583 324.775C573.583 325.145 573.882 325.445 574.252 325.445Z" fill="#F2F2F2"/>
<path id="Vector_43" d="M289.65 17.4106H23.2091V152.678H289.65V17.4106Z" fill="#F2F2F2"/>
<path id="Vector_44" d="M69.9755 140.289L130.321 39.5087L192.914 140.289" fill="#F1972C"/>
<path id="Vector_45" d="M161.45 88.7272L173.5 57.2541L241.784 140.289H161.116L161.45 88.7272Z" fill="#F1972C"/>
<path id="Vector_46" d="M148.764 76.2222C150.64 75.0742 152.271 73.5676 153.565 71.7885C154.859 70.0093 155.789 67.9926 156.303 65.8536C156.817 63.7146 156.904 61.4952 156.56 59.3223C156.216 57.1495 155.448 55.0657 154.298 53.1902C153.149 51.3147 151.641 49.6843 149.861 48.392C148.081 47.0998 146.064 46.1711 143.925 45.6591C141.786 45.1471 139.567 45.0618 137.395 45.4081C135.223 45.7543 133.141 46.5254 131.267 47.6772" fill="#F1972C"/>
<path id="Vector_47" d="M305.382 0.33482H38.9412V135.602H305.382V0.33482Z" stroke="#3F3D56" stroke-miterlimit="10"/>
<path id="Vector_48" d="M73.3227 135.602L133.668 34.8212L196.262 135.602" stroke="#3F3D56" stroke-miterlimit="10"/>
<path id="Vector_49" d="M163.459 82.7004L175.509 51.2274L243.792 135.602" stroke="#3F3D56" stroke-miterlimit="10"/>
<path id="Vector_50" d="M153.45 66.8473C155.326 65.6993 156.957 64.1926 158.251 62.4135C159.545 60.6344 160.475 58.6177 160.989 56.4787C161.503 54.3397 161.591 52.1203 161.247 49.9474C160.903 47.7745 160.134 45.6908 158.984 43.8153C157.835 41.9398 156.327 40.3093 154.547 39.0171C152.767 37.7248 150.75 36.7962 148.611 36.2842C146.472 35.7721 144.253 35.6868 142.081 36.0331C139.909 36.3794 137.827 37.1504 135.953 38.3022" stroke="#3F3D56" stroke-miterlimit="10"/>
</g>
<defs>
<clipPath id="clip0">
<rect width="674" height="407" fill="white"/>
</clipPath>
</defs>
</svg>
